<?xml version="1.0" encoding="UTF-8" standalone="no"?>
<svg
   xmlns:dc="http://purl.org/dc/elements/1.1/"
   xmlns:cc="http://creativecommons.org/ns#"
   xmlns:rdf="http://www.w3.org/1999/02/22-rdf-syntax-ns#"
   xmlns:svg="http://www.w3.org/2000/svg"
   xmlns="http://www.w3.org/2000/svg"
   xmlns:xlink="http://www.w3.org/1999/xlink"
   xmlns:sodipodi="http://sodipodi.sourceforge.net/DTD/sodipodi-0.dtd"
   xmlns:inkscape="http://www.inkscape.org/namespaces/inkscape"
   t="1622916622113"
   class="icon"
   viewBox="0 0 1088 1024"
   version="1.1"
   p-id="7731"
   width="212.5"
   height="200"
   id="wingale"
   sodipodi:docname="Logo.svg"
   inkscape:version="1.0.2-2 (e86c870879, 2021-01-15)"
   inkscape:export-filename="H:\wingale\Logo.png"
   inkscape:export-xdpi="96"
   inkscape:export-ydpi="96">
  <metadata
     id="metadata">
    <rdf:RDF>
      <cc:Work
         rdf:about="">
        <dc:format>image/svg+xml</dc:format>
        <dc:type
           rdf:resource="http://purl.org/dc/dcmitype/StillImage" />
        <dc:title></dc:title>
      </cc:Work>
    </rdf:RDF>
  </metadata>
  <sodipodi:namedview
     pagecolor="#ffffff"
     bordercolor="#666666"
     borderopacity="1"
     objecttolerance="10"
     gridtolerance="10"
     guidetolerance="10"
     inkscape:pageopacity="0"
     inkscape:pageshadow="2"
     inkscape:window-width="1920"
     inkscape:window-height="1001"
     id="namedview853"
     showgrid="false"
     inkscape:zoom="2.0025"
     inkscape:cx="87.206236"
     inkscape:cy="75.034796"
     inkscape:window-x="-9"
     inkscape:window-y="-9"
     inkscape:window-maximized="1"
     inkscape:current-layer="wingale"
     inkscape:document-rotation="0" />
  <defs
     id="wind-1">
    <linearGradient
       inkscape:collect="always"
       id="linearGradient928">
      <stop
         style="stop-color:#0000ff;stop-opacity:1;"
         offset="0"
         id="stop924" />
      <stop
         style="stop-color:#0000ff;stop-opacity:0;"
         offset="1"
         id="stop926" />
    </linearGradient>
    <linearGradient
       inkscape:collect="always"
       id="linearGradient912">
      <stop
         style="stop-color:#00ffff;stop-opacity:1;"
         offset="0"
         id="stop908" />
      <stop
         style="stop-color:#00ffff;stop-opacity:0;"
         offset="1"
         id="stop910" />
    </linearGradient>
    <style
       type="text/css"
       id="style845" />
    <linearGradient
       inkscape:collect="always"
       xlink:href="#linearGradient912"
       id="linearGradient914"
       x1="67.009152"
       y1="484.12403"
       x2="1041.6133"
       y2="484.12403"
       gradientUnits="userSpaceOnUse"
       gradientTransform="matrix(0.80138385,0,0,0.80138385,112.79913,124.27969)" />
    <linearGradient
       inkscape:collect="always"
       xlink:href="#linearGradient928"
       id="linearGradient934"
       x1="0"
       y1="512.00055"
       x2="1084.9863"
       y2="512.00055"
       gradientUnits="userSpaceOnUse"
       gradientTransform="matrix(0.80138385,0,0,0.80138385,112.79913,124.27969)" />
    <style
       type="text/css"
       id="style948" />
  </defs>
  <path
     d="M 552.51289,678.38053 A 161.47681,161.47681 0 0 0 704.67373,589.56828 142.2238,142.2238 0 0 0 671.7573,423.74402 166.44533,166.44533 0 0 0 497.23814,388.34334 150.91871,150.91871 0 0 0 399.10993,528.08288 143.46593,143.46593 0 0 0 442.58445,633.0428 160.85575,160.85575 0 0 0 552.51289,678.38053 Z M 389.79396,836.75201 A 419.8397,419.8397 0 0 1 299.73958,774.64554 323.57468,323.57468 0 0 1 182.97943,599.50531 346.55407,346.55407 0 0 1 169.93707,505.10349 c 0,-210.54092 191.28791,-380.71263 429.77673,-380.71263 A 438.47163,438.47163 0 0 1 982.28962,331.82646 396.23924,396.23924 0 0 0 713.36863,229.97185 h -8.07383 a 444.68229,444.68229 0 0 1 90.05437,62.10646 325.43787,325.43787 0 0 1 116.76015,177.62449 350.90152,350.90152 0 0 1 13.04235,95.0229 c 0,209.91984 -192.53003,380.09156 -429.77673,380.09156 A 439.0927,439.0927 0 0 1 112.79913,735.51847 395.61818,395.61818 0 0 0 381.72011,836.75201 Z"
     fill="#eae72d"
     p-id="7732"
     id="wind-2"
     style="fill:url(#linearGradient934);fill-opacity:1;stroke-width:0.801384" />
  <path
     d="m 424.97448,609.86983 a 161.47681,161.47681 0 0 0 152.31136,88.55386 142.2238,142.2238 0 0 0 128.01075,-110.42836 166.44533,166.44533 0 0 0 -55.28956,-169.2726 150.91871,150.91871 0 0 0 -169.95968,-16.4314 143.46593,143.46593 0 0 0 -69.85816,89.59051 160.85575,160.85575 0 0 0 14.78529,117.98799 z M 206.94701,546.44272 a 419.8397,419.8397 0 0 1 9.60465,-108.97135 323.57468,323.57468 0 0 1 94.75751,-187.95757 346.55407,346.55407 0 0 1 75.68494,-57.91025 C 570.13945,87.751444 812.52371,170.20953 930.16153,377.66621 a 438.47163,438.47163 0 0 1 8.26651,435.11539 396.23924,396.23924 0 0 0 -44.04757,-284.17011 l -3.98252,-7.02327 a 444.68229,444.68229 0 0 1 -9.60467,108.97132 325.43787,325.43787 0 0 1 -96.91848,189.183 350.90152,350.90152 0 0 1 -76.22522,58.21658 C 525.04449,981.50486 282.04752,897.96628 165.02244,691.59012 a 439.0927,439.0927 0 0 1 -6.64579,-436.03447 395.61818,395.61818 0 0 0 44.58782,283.86379 z"
     fill="#eae72d"
     p-id="7732"
     id="wind-3"
     style="fill:#e6e6e6;fill-opacity:1;stroke-width:0.801384" />
  <path
     d="M 448.26584,417.47577 A 161.47681,161.47681 0 0 0 409.60458,589.36485 142.2238,142.2238 0 0 0 553.41199,678.25016 166.44533,166.44533 0 0 0 698.22839,574.6241 150.91871,150.91871 0 0 0 662.7981,407.58823 143.46593,143.46593 0 0 0 556.34895,367.89944 160.85575,160.85575 0 0 0 448.26584,417.47577 Z m -5.06155,-227.00959 a 419.8397,419.8397 0 0 1 106.81694,-23.60392 323.57468,323.57468 0 0 1 207.75111,33.8602 346.55407,346.55407 0 0 1 77.98669,54.77118 c 154.11264,143.44605 148.34709,399.4074 -14.14044,573.97753 A 438.47163,438.47163 0 0 1 409.12193,968.18036 396.23924,396.23924 0 0 0 666.89949,840.73012 l 5.50087,-5.90995 A 444.68229,444.68229 0 0 1 565.58344,858.42408 325.43787,325.43787 0 0 1 356.01387,822.87134 350.90152,350.90152 0 0 1 277.57254,767.67698 C 123.91454,624.6541 130.5264,367.78349 292.16765,194.12264 A 439.0927,439.0927 0 0 1 706.02818,56.682884 395.61818,395.61818 0 0 0 448.70518,184.55625 Z"
     fill="#eae72d"
     p-id="7732"
     id="wind-4"
     style="fill:url(#linearGradient914);fill-opacity:1;stroke-width:0.801384" />
</svg>
